<svg width="140" height="32" viewBox="0 0 140 32" fill="none" xmlns="http://www.w3.org/2000/svg">
<path d="M4.96346 6.66856C6.4685 6.66856 7.68535 5.54778 7.68535 4.1388C7.68535 2.72983 6.4685 1.57703 4.96346 1.57703C3.49044 1.57703 2.27359 2.72983 2.27359 4.1388C2.27359 5.54778 3.49044 6.66856 4.96346 6.66856ZM7.17299 19.7977V8.10956L0.576416 10.159V10.4472C2.20955 10.4472 2.88202 10.9275 2.88202 12.5286V19.8617C2.88202 21.4308 2.27359 22.4235 0.64046 22.4235V22.8398H9.38253V22.4235C7.78142 22.4235 7.17299 21.4308 7.17299 19.7977Z" fill="#151515"/>
<path d="M24.6651 19.7656V0.104004L18.0365 2.15343V2.44163C19.6697 2.44163 20.3421 2.95398 20.3421 4.55509V9.55056C20.0539 8.97416 19.2214 8.07754 17.6843 8.07754C14.45 8.07754 10.8636 11.1837 10.8636 16.4994C10.8636 20.1179 13.0731 23.128 16.3394 23.128C18.3247 23.128 19.8298 21.719 20.3421 20.6943V20.7904L20.4702 22.8078H26.8747V22.3915C25.2415 22.3915 24.6651 21.3988 24.6651 19.7656ZM18.4208 21.2066C16.4674 21.2066 15.2506 18.4527 15.2506 14.7702C15.2506 11.9522 16.4034 8.84607 18.1646 8.84607C19.3174 8.84607 20.3421 10.4472 20.3421 12.3045V19.3814C20.214 19.9258 19.7017 21.2066 18.4208 21.2066Z" fill="#151515"/>
<path d="M56.6653 10.5432C56.6653 10.5432 49.4283 7.08485 49.3002 7.0208C48.1474 6.47643 46.7385 5.54778 46.7385 3.65847C46.7385 2.24949 47.7952 1.19276 49.6525 1.19276C51.4777 1.19276 52.6946 2.15343 53.8154 3.37027C54.68 4.33094 55.5125 5.32363 56.4412 6.18823C57.0176 6.76463 57.8822 7.309 58.9069 7.50114H59.035C58.3945 5.32363 57.658 2.60174 57.9142 0.392204H57.6901C56.7934 0.840515 56.4092 1.16074 55.1603 1.16074C53.3991 1.16074 51.862 0.392204 49.6845 0.392204C46.6104 0.392204 43.8885 3.01803 43.8885 6.25227C43.8885 9.3264 46.3542 11.1837 47.9233 11.9202C48.0834 11.9843 53.9435 14.8022 54.2957 14.9623C55.0322 15.3146 57.4659 16.2752 57.4659 18.773C57.4659 21.0465 55.6406 22.2634 53.6873 22.2634C50.1648 22.2634 49.2682 15.1224 42.4795 15.1224C43.6323 17.5241 43.7604 20.4061 43.5042 23.16H43.8244C44.657 22.3274 45.6497 21.8151 46.6744 21.8151C48.5637 21.8151 50.7412 23.16 53.6232 23.16C57.1457 23.16 60.4119 20.4381 60.4119 16.7235C60.4119 13.9696 58.4266 11.3758 56.6653 10.5432Z" fill="#151515"/>
<path d="M72.1486 20.1179C71.9565 20.5982 71.5722 21.5269 70.4834 21.5269C69.5868 21.5269 68.8823 20.9185 68.8823 19.6376V9.00618H71.8604V8.39776H68.8823V2.98601H68.434C67.6335 5.16352 65.2318 8.26967 62.1256 8.39776V9.00618H64.5913V19.6376C64.5913 21.719 65.7441 23.128 68.4981 23.128C70.6115 23.128 72.1166 21.687 72.6289 20.1179H72.1486Z" fill="#151515"/>
<path d="M90.0015 19.8937V8.10956L83.4049 10.127V10.4472C85.038 10.4472 85.7105 10.9275 85.7105 12.5286L85.6785 20.214L85.3262 20.4061C84.6858 20.7583 83.7892 21.4308 82.7645 21.4308C81.4195 21.4308 80.9712 20.4701 80.9712 18.9971V8.10956L74.3746 10.127V10.4472C76.0078 10.4472 76.6802 10.9275 76.6802 12.5286V20.0859C76.6802 21.751 77.737 23.128 79.7864 23.128C81.5476 23.128 83.1487 22.3274 85.6785 20.9505V22.8078H92.0189V22.3915C90.3857 22.3915 90.0015 21.5269 90.0015 19.8937Z" fill="#151515"/>
<path d="M107.785 19.7656V0.104004L101.157 2.15343V2.44163C102.79 2.44163 103.462 2.95398 103.462 4.55509V9.55056C103.174 8.97416 102.342 8.07754 100.804 8.07754C97.5702 8.07754 93.9837 11.1837 93.9837 16.4994C93.9837 20.1179 96.1933 23.128 99.4595 23.128C101.445 23.128 102.95 21.719 103.462 20.6943V20.7904L103.59 22.8078H109.995V22.3915C108.362 22.3915 107.785 21.3988 107.785 19.7656ZM101.541 21.2066C99.5876 21.2066 98.3708 18.4527 98.3708 14.7702C98.3708 11.9522 99.5236 8.84607 101.285 8.84607C102.438 8.84607 103.462 10.4472 103.462 12.3045V19.3814C103.334 19.9258 102.822 21.2066 101.541 21.2066Z" fill="#151515"/>
<path d="M116.234 6.66856C117.739 6.66856 118.956 5.54778 118.956 4.1388C118.956 2.72983 117.739 1.57703 116.234 1.57703C114.761 1.57703 113.545 2.72983 113.545 4.1388C113.545 5.54778 114.761 6.66856 116.234 6.66856ZM118.444 19.7977V8.10956L111.847 10.159V10.4472C113.481 10.4472 114.153 10.9275 114.153 12.5286V19.8617C114.153 21.4308 113.545 22.4235 111.911 22.4235V22.8398H120.654V22.4235C119.052 22.4235 118.444 21.4308 118.444 19.7977Z" fill="#151515"/>
<path d="M130.07 8.07754C126.003 8.07754 122.321 10.9275 122.321 15.6028C122.321 20.31 126.003 23.128 130.07 23.128C134.169 23.128 137.851 20.31 137.851 15.6028C137.851 10.9275 134.169 8.07754 130.07 8.07754ZM130.07 22.3915C128.053 22.3915 126.932 19.7336 126.932 15.6028C126.932 11.4078 128.053 8.81405 130.07 8.81405C132.087 8.81405 133.208 11.4078 133.208 15.6028C133.208 19.7977 132.087 22.3915 130.07 22.3915Z" fill="#151515"/>
<circle cx="5" cy="4" r="3" fill="#4B4B4B"/>
<line y1="31.25" x2="28" y2="31.25" stroke="#151515" stroke-width="1.5"/>
<line x1="43" y1="31.25" x2="140" y2="31.25" stroke="#4B4B4B" stroke-width="1.5"/>
</svg>
