<svg width="80" height="77" viewBox="0 0 80 77" fill="none" xmlns="http://www.w3.org/2000/svg">
<path d="M2 75.9908V10H79V63.8602C79 70.5618 73.5544 76 66.8436 76L2 75.9908Z" fill="white"/>
<path d="M71.5 68C75.6421 68 79 65.9853 79 63.5C79 61.0147 75.6421 59 71.5 59C67.3579 59 64 61.0147 64 63.5C64 65.9853 67.3579 68 71.5 68Z" fill="white"/>
<path d="M64 5.76993V63C64 60.3693 67.3577 58.2301 71.5 58.2301C75.6423 58.2301 79 60.3693 79 63V5.76993C79 3.13919 75.6423 1 71.5 1C67.3577 1 64 3.13008 64 5.76993Z" fill="#464646"/>
<path d="M47.7765 40.534L36.3503 32.1106C36.1446 31.9631 35.8585 31.9631 35.6529 32.1106L24.2267 40.534C23.9763 40.7162 23.9227 41.0719 24.1194 41.3148C24.2267 41.4536 24.3965 41.5317 24.5754 41.5317H27.186V53H44.8171V41.5317H47.4278C47.7407 41.5317 48 41.2801 48 40.9765C48 40.803 47.9195 40.6381 47.7765 40.534Z" fill="#464646"/>
<path d="M61 10.007C61 9.44857 60.5448 9 59.9781 9H1.02192C0.455215 9 0 9.44857 0 10.007V75.993C0 76.5514 0.455215 77 1.02192 77C1.58863 77 2.04386 76.5514 2.04386 75.993V11.0048H59.9873C60.5448 11.0048 61 10.5563 61 10.007Z" fill="#321F10"/>
<path d="M71.5065 0C66.7443 0 63.013 2.53355 63.013 5.77796V18.71H60.2852V15.5112C60.2852 14.9553 59.8382 14.5087 59.2817 14.5087C58.7252 14.5087 58.2782 14.9553 58.2782 15.5112V18.71H49.6843V15.5112C49.6843 14.9553 49.2373 14.5087 48.6808 14.5087C48.1243 14.5087 47.6773 14.9553 47.6773 15.5112V18.71H39.0834V15.5112C39.0834 14.9553 38.6364 14.5087 38.0799 14.5087C37.5234 14.5087 37.0764 14.9553 37.0764 15.5112V18.71H28.4825V15.5112C28.4825 14.9553 28.0355 14.5087 27.479 14.5087C26.9225 14.5087 26.4755 14.9553 26.4755 15.5112V18.71H17.8816V15.5112C17.8816 14.9553 17.4346 14.5087 16.8781 14.5087C16.3216 14.5087 15.8746 14.9553 15.8746 15.5112V18.71H12.6086C12.0521 18.71 11.605 19.1566 11.605 19.7125C11.605 20.2684 12.0521 20.715 12.6086 20.715H15.8746V26.5021H9.07797C8.52147 26.5021 8.07444 26.9486 8.07444 27.5046C8.07444 28.0605 8.52147 28.507 9.07797 28.507H15.8746V34.2941H9.07797C8.52147 34.2941 8.07444 34.7407 8.07444 35.2966C8.07444 35.8525 8.52147 36.2991 9.07797 36.2991H15.8746V42.0862H9.07797C8.52147 42.0862 8.07444 42.5327 8.07444 43.0886C8.07444 43.6446 8.52147 44.0911 9.07797 44.0911H15.8746V49.8782H9.07797C8.52147 49.8782 8.07444 50.3248 8.07444 50.8807C8.07444 51.4366 8.52147 51.8832 9.07797 51.8832H15.8746V57.6703H9.07797C8.52147 57.6703 8.07444 58.1168 8.07444 58.6727C8.07444 59.2287 8.52147 59.6752 9.07797 59.6752H15.8746V65.4623H9.07797C8.52147 65.4623 8.07444 65.9089 8.07444 66.4648C8.07444 67.0207 8.52147 67.4673 9.07797 67.4673H15.8746V70.8575C15.8746 71.4134 16.3216 71.86 16.8781 71.86C17.4346 71.86 17.8816 71.4134 17.8816 70.8575V67.4673H26.4755V70.8575C26.4755 71.4134 26.9225 71.86 27.479 71.86C28.0355 71.86 28.4825 71.4134 28.4825 70.8575V67.4673H37.0764V70.8575C37.0764 71.4134 37.5234 71.86 38.0799 71.86C38.6364 71.86 39.0834 71.4134 39.0834 70.8575V67.4673H47.6773V70.8575C47.6773 71.4134 48.1243 71.86 48.6808 71.86C49.2373 71.86 49.6843 71.4134 49.6843 70.8575V67.4673H65.8867C67.6019 68.4333 69.5451 68.9163 71.5065 68.889C73.6139 68.9345 75.6939 68.3695 77.482 67.2486C76.0224 71.86 71.7437 74.9859 66.8994 74.995H6.00352C5.44702 74.995 5 75.4416 5 75.9975C5 76.5534 5.44702 77 6.00352 77H66.8994C74.1248 76.9909 79.9818 71.14 79.9909 63.9221C79.9818 63.8492 79.9726 63.7763 79.9453 63.7125C79.9726 63.5211 79.9909 63.3206 79.9909 63.1292C79.9909 59.894 76.2596 57.3604 71.4974 57.3604C69.171 57.2875 66.8811 57.9983 65.0018 59.3836V31.232C65.0018 30.6761 64.5548 30.2295 63.9983 30.2295C63.4418 30.2295 62.9948 30.6761 62.9948 31.232V34.2759H60.267V28.4888H63.9983C64.5548 28.4888 65.0018 28.0423 65.0018 27.4863V5.76885C65.0018 3.71831 67.9759 1.99586 71.4974 1.99586C75.0189 1.99586 77.9929 3.72742 77.9929 5.76885V51.6462C77.9929 52.2022 78.44 52.6487 78.9965 52.6487C79.553 52.6487 80 52.2022 80 51.6462V5.76885C80.0091 2.53355 76.2778 0 71.5065 0ZM58.2873 20.7059V26.493H49.6935V20.7059H58.2873ZM17.909 20.7059H26.5028V26.493H17.909V20.7059ZM17.909 65.4258V59.6388H26.5028V65.4258H17.909ZM58.2873 59.6388V65.4258H49.6935V59.6388H58.2873ZM63.013 49.8509H60.2852V44.0638H63.013V49.8509ZM63.013 51.8558V57.6429H60.2852V51.8558H63.013ZM63.013 59.6388V63.0746C63.0221 63.913 63.2684 64.7332 63.7337 65.435H60.2852V59.6388H63.013ZM71.5065 59.2925C75.028 59.2925 78.0021 61.024 78.0021 63.0655C78.0021 65.1069 75.028 66.8384 71.5065 66.8384C67.985 66.8384 65.0109 65.1069 65.0109 63.0655C65.0109 61.024 67.985 59.2925 71.5065 59.2925ZM63.013 36.2809V42.0679H60.2852V36.2809H63.013ZM58.2873 34.2759H48.7447C48.1882 34.2759 47.7411 34.7225 47.7411 35.2784C47.7411 35.8343 48.1882 36.2809 48.7447 36.2809H58.2873V42.0679H53.4886C52.9321 42.0679 52.4851 42.5145 52.4851 43.0704C52.4851 43.6263 52.9321 44.0729 53.4886 44.0729H58.2873V49.86H52.2935C51.737 49.86 51.29 50.3065 51.29 50.8625C51.29 51.4184 51.737 51.865 52.2935 51.865H58.2873V57.652H34.7044C34.1479 57.652 33.7009 58.0986 33.7009 58.6545C33.7009 59.2104 34.1479 59.657 34.7044 59.657H47.6955V65.4441H39.1017V62.546C39.1017 61.9901 38.6547 61.5435 38.0982 61.5435C37.5417 61.5435 37.0946 61.9901 37.0946 62.546V65.4441H28.5008V59.657H30.6994C31.2559 59.657 31.7029 59.2104 31.7029 58.6545C31.7029 58.0986 31.2559 57.652 30.6994 57.652H17.909V51.8558H22.9084C23.4649 51.8558 23.9119 51.4093 23.9119 50.8534C23.9119 50.2974 23.4649 49.8509 22.9084 49.8509H17.909V44.0638H20.4087C20.9652 44.0638 21.4122 43.6172 21.4122 43.0613C21.4122 42.5054 20.9652 42.0588 20.4087 42.0588H17.909V36.2717H22.4066C22.9631 36.2717 23.4102 35.8252 23.4102 35.2693C23.4102 34.7133 22.9631 34.2668 22.4066 34.2668H17.909V28.4797H26.5028V32.5717C26.5028 33.1276 26.9499 33.5742 27.5064 33.5742C28.0629 33.5742 28.5099 33.1276 28.5099 32.5717V28.4797H40.6982C41.2547 28.4797 41.7017 28.0331 41.7017 27.4772C41.7017 26.9213 41.2547 26.4747 40.6982 26.4747H28.5099V20.6877H37.1038V23.8865C37.1038 24.4424 37.5508 24.889 38.1073 24.889C38.6638 24.889 39.1108 24.4424 39.1108 23.8865V20.6877H47.7047V26.4747H44.7032C44.1467 26.4747 43.6997 26.9213 43.6997 27.4772C43.6997 28.0331 44.1467 28.4797 44.7032 28.4797H47.7047V30.2751C47.7047 30.831 48.1517 31.2775 48.7082 31.2775C49.2647 31.2775 49.7117 30.831 49.7117 30.2751V28.4797H58.3055V34.2759H58.2873ZM60.2852 20.7059H63.013V26.493H60.2852V20.7059Z" fill="#321F10"/>
<path d="M78.5 54C77.6682 54 77 54.5069 77 55.1379V55.8621C77 56.4931 77.6682 57 78.5 57C79.3318 57 80 56.4931 80 55.8621V55.1379C80 54.5069 79.3318 54 78.5 54Z" fill="#321F10"/>
<path d="M35.1613 31.3072L23.6174 39.7691C22.9309 40.2745 22.7954 41.2244 23.3193 41.8867C23.6174 42.2614 24.0781 42.4793 24.5659 42.4793H26.2098V53.0414C26.2098 53.573 26.6524 54 27.2034 54H45.016C45.567 54 46.0096 53.573 46.0096 53.0414V43.0632C46.0096 42.5316 45.567 42.1046 45.016 42.1046C44.465 42.1046 44.0224 42.5316 44.0224 43.0632V52.1002H28.188V41.5294C28.188 40.9978 27.7454 40.5708 27.1944 40.5708H25.7762L36.1007 33.0065L47.3916 41.2854C47.8161 41.6166 48.4394 41.5468 48.7827 41.1373C49.1259 40.7277 49.0536 40.1264 48.6291 39.7952C48.6201 39.7865 48.602 39.7778 48.593 39.7691L37.0491 31.3072C36.4891 30.8976 35.7213 30.8976 35.1613 31.3072Z" fill="#321F10"/>
<path d="M8.12628 19C7.50171 19 7 19.4455 7 20C7 20.5545 7.50171 21 8.12628 21H8.87372C9.49829 21 10 20.5545 10 20C10 19.4455 9.49829 19 8.87372 19H8.12628Z" fill="#321F10"/>
<path d="M60 70.9752V70.0249C60 69.4565 59.5546 69 59 69C58.4455 69 58 69.4565 58 70.0249V70.9752C58 71.5435 58.4455 72 59 72C59.5546 72 60 71.5342 60 70.9752Z" fill="#321F10"/>
</svg>
