<svg width="83" height="82" viewBox="0 0 83 82" fill="none" xmlns="http://www.w3.org/2000/svg">
<path d="M24.482 42.8379H59.2861C66.1358 42.8379 71.6921 48.3942 71.6921 55.2438V66.6752H12.0761V55.2438C12.0761 48.385 17.6323 42.8379 24.482 42.8379Z" fill="white"/>
<path d="M76.365 76.0206H7.40355C4.8258 76.0206 2.73081 73.9256 2.73081 71.3479V58.3954C2.73081 55.8176 4.8258 53.7227 7.40355 53.7227C9.98129 53.7227 12.0763 55.8176 12.0763 58.3954V66.666H71.6923V58.3954C71.6923 55.8176 73.7873 53.7227 76.3741 53.7227C78.9519 53.7227 81.0469 55.8176 81.0469 58.3954V71.3388C81.0378 73.9256 78.9519 76.0206 76.365 76.0206Z" fill="#464646"/>
<path d="M12.4951 76.0205L9.13399 80.6932H12.4951L17.769 76.0205H12.4951Z" fill="white"/>
<path d="M71.2733 76.0205L74.6343 80.6932H71.2733L65.9994 76.0205H71.2733Z" fill="white"/>
<path d="M11.5294 18.873H3.26793L1.05452 31.2608H13.752L11.5294 18.873Z" fill="white"/>
<path d="M49.2937 11.6318H35.5032V25.4223H49.2937V11.6318Z" fill="#464646"/>
<path d="M71.6921 1.05664H57.9016V14.8471H71.6921V1.05664Z" fill="white"/>
<path d="M28.8724 43.8762H59.2862C63.8314 43.8762 67.9393 46.5815 69.7246 50.7533C69.9524 51.2816 70.5626 51.5275 71.1001 51.2998C71.6284 51.0721 71.8743 50.4618 71.6466 49.9244C69.5243 44.9784 64.6602 41.7812 59.2862 41.7812H28.8724C28.2986 41.7812 27.8249 42.2458 27.8249 42.8288C27.834 43.4117 28.2986 43.8762 28.8724 43.8762Z" fill="#333231"/>
<path d="M76.3649 52.6752C73.2133 52.6752 70.6538 55.2347 70.6447 58.3954V65.6276H42.9271V51.7643C42.9271 51.1905 42.4626 50.7168 41.8796 50.7168C41.2967 50.7168 40.8321 51.1813 40.8321 51.7643V65.6276H20.2739C19.7001 65.6276 19.2264 66.0922 19.2264 66.6751C19.2264 67.249 19.691 67.7226 20.2739 67.7226H71.6831C72.2569 67.7226 72.7305 67.2581 72.7305 66.6751V58.4045C72.7943 56.4006 74.4703 54.8248 76.4742 54.8794C78.3961 54.9341 79.9355 56.4826 79.9992 58.4045V71.3479C79.9992 73.3518 78.3688 74.9822 76.3649 74.9822H62.6746C62.1008 74.9822 61.6271 75.4467 61.6271 76.0297C61.6271 76.6127 62.0917 77.0772 62.6746 77.0772H65.5985L70.5809 81.4858C70.7722 81.6588 71.0181 81.7499 71.2732 81.7499H74.6251C75.199 81.7499 75.6726 81.2854 75.6726 80.7024C75.6726 80.4838 75.6089 80.2743 75.4814 80.0921L73.3135 77.0681H76.3649C79.5256 77.0681 82.0851 74.5086 82.0851 71.3479V58.4045C82.076 55.2438 79.5165 52.6843 76.3649 52.6752ZM72.5939 79.6549H71.6648L68.741 77.0681H70.7267L72.5939 79.6549Z" fill="#333231"/>
<path d="M16.002 65.6279C15.4282 65.6279 14.9545 66.0925 14.9545 66.6754C14.9545 67.2493 15.4191 67.7229 16.002 67.7229H16.5212C17.0951 67.7229 17.5687 67.2584 17.5687 66.6754C17.5687 66.1016 17.1042 65.6279 16.5212 65.6279H16.002Z" fill="#333231"/>
<path d="M54.6132 74.9733H7.40318C5.39928 74.9733 3.76883 73.3428 3.76883 71.3389V58.3865C3.72329 56.3826 5.31731 54.7248 7.32121 54.6792C9.32511 54.6337 10.9829 56.2277 11.0284 58.2316C11.0284 58.2862 11.0284 58.3318 11.0284 58.3865V66.6571C11.0284 67.2309 11.493 67.7046 12.0759 67.7046C12.6498 67.7046 13.1234 67.24 13.1234 66.6571V55.2258C13.1325 48.9499 18.2151 43.8673 24.491 43.8673C25.0648 43.8673 25.5385 43.4027 25.5385 42.8198C25.5385 42.2459 25.0739 41.7723 24.491 41.7723C17.532 41.7814 11.7298 47.0917 11.1013 54.0234C10.3453 53.3767 9.4344 52.9486 8.45067 52.7664V34.8497C8.45067 34.2759 7.98613 33.8022 7.40318 33.8022C6.82934 33.8022 6.35569 34.2668 6.35569 34.8497V52.7664C3.65043 53.2674 1.68296 55.6356 1.68296 58.3865V71.3298C1.68296 74.4905 4.24249 77.05 7.40318 77.05H10.4546L8.28672 80.0741C7.9497 80.5387 8.059 81.1945 8.52354 81.5315C8.6966 81.659 8.91521 81.7228 9.13382 81.7228H12.4858C12.7408 81.7228 12.9868 81.6317 13.1781 81.4586L15.2002 79.6733C15.6283 79.2908 15.6647 78.6258 15.273 78.1977C14.8905 77.7787 14.2438 77.7332 13.8157 78.1066L12.0941 79.6369H11.1651L13.0232 77.05H54.6132C55.1871 77.05 55.6607 76.5855 55.6607 76.0026C55.6516 75.4469 55.1871 74.9733 54.6132 74.9733Z" fill="#333231"/>
<path d="M58.503 74.9731H58.0111C57.4373 74.9731 56.9637 75.4377 56.9637 76.0206C56.9637 76.5945 57.4282 77.0681 58.0111 77.0681H58.503C59.0769 77.0681 59.5505 76.6036 59.5505 76.0206C59.5505 75.4468 59.086 74.9731 58.503 74.9731Z" fill="#333231"/>
<path d="M40.8412 47.3649V47.8932C40.8412 48.467 41.3057 48.9407 41.8887 48.9407C42.4716 48.9407 42.9362 48.4761 42.9362 47.8932V47.3649C42.9362 46.791 42.4716 46.3174 41.8887 46.3174C41.3057 46.3174 40.8412 46.791 40.8412 47.3649Z" fill="#333231"/>
<path d="M14.5536 31.935C14.754 31.6981 14.836 31.3884 14.7813 31.0787L12.5588 18.6819C12.4677 18.1809 12.0396 17.8257 11.5295 17.8257H3.26802C2.76705 17.8257 2.32983 18.19 2.23874 18.6819L0.0162352 31.0787C-0.0839598 31.6435 0.289501 32.19 0.863345 32.2902C0.927106 32.2993 0.981755 32.3084 1.04552 32.3084H13.7521C14.0618 32.3084 14.3532 32.1718 14.5536 31.935ZM2.3025 30.2225L4.15156 19.9116H10.6642L12.5133 30.2225H2.3025Z" fill="#333231"/>
<path d="M35.5035 26.4605H49.294C49.8678 26.4605 50.3415 25.9959 50.3415 25.413V15.6759C50.3415 15.102 49.8769 14.6284 49.294 14.6284C48.7201 14.6284 48.2465 15.0929 48.2465 15.6759V24.3655H36.5419V12.6609H49.2849C49.8587 12.6609 50.3324 12.1964 50.3324 11.6134C50.3324 11.0305 49.8678 10.5659 49.2849 10.5659H35.4944C34.9206 10.5659 34.4469 11.0305 34.4469 11.6134V25.4039C34.4651 25.9959 34.9297 26.4605 35.5035 26.4605Z" fill="#333231"/>
<path d="M57.9106 15.8855H71.7011C72.2749 15.8855 72.7486 15.4209 72.7486 14.838V1.04749C72.7486 0.47365 72.2841 0 71.7011 0H57.9106C57.3368 0 56.8631 0.464542 56.8631 1.04749V14.838C56.8631 15.4209 57.3277 15.8855 57.9106 15.8855ZM58.949 2.09499H70.6445V13.7996H58.9399L58.949 2.09499Z" fill="#333231"/>
</svg>
