<svg width="69" height="69" viewBox="0 0 69 69" fill="none" xmlns="http://www.w3.org/2000/svg">
<path d="M3.33804 3.31508C0.238242 6.41488 0.238242 11.4463 3.33804 14.5461L49.3935 60.6016L60.6245 49.3706L14.5691 3.31508C11.4693 0.215285 6.43784 0.215285 3.33804 3.31508Z" fill="#464646"/>
<path d="M9.25254 20.4701L3.32889 14.5464C0.238286 11.4282 0.256683 6.40598 3.37488 3.31538C6.47468 0.243179 11.4693 0.243179 14.5691 3.31538L20.4928 9.23903L9.25254 20.4701Z" fill="#464646"/>
<path d="M20.4882 9.24112L9.25565 20.4736L13.7239 24.9419L24.9565 13.7094L20.4882 9.24112Z" fill="white"/>
<path d="M49.3933 60.6016C49.3933 60.6016 27.0416 30.3854 55.0134 54.9815C55.0134 54.9815 19.4071 15.4383 60.6335 49.3613L67.9369 67.8958L49.3933 60.6016Z" fill="white"/>
<path d="M60.3763 64.9343C61.1673 62.8187 62.8322 61.1538 64.9478 60.3628L67.9188 67.9145L60.3763 64.9343Z" fill="#464646"/>
<path d="M29.8931 19.9454C30.2518 20.3042 30.8405 20.3042 31.1992 19.9454C31.558 19.5867 31.558 18.998 31.1992 18.6393L30.7393 18.1794C30.3622 17.8298 29.7735 17.8574 29.4332 18.2346C29.1112 18.5841 29.1112 19.1268 29.4332 19.4855L29.8931 19.9454Z" fill="#333231"/>
<path d="M41.85 46.2986C42.6687 46.5009 45.4741 47.8439 54.3872 55.6807C54.7735 56.0211 55.353 55.9751 55.6934 55.598C56.0061 55.2484 55.9969 54.7149 55.6842 54.3746C55.629 54.3102 50.0824 48.1566 45.9708 42.8584C45.6581 42.4537 45.0786 42.3709 44.6739 42.6837C44.2692 42.9964 44.1864 43.5759 44.4991 43.9806C44.5083 43.9898 44.5083 43.9898 44.5175 43.999C45.3914 45.1212 46.3204 46.2802 47.2586 47.4024C42.4847 43.8794 41.2614 44.1278 40.5071 44.8177C39.5689 45.6731 39.6793 47.4483 43.1286 53.0409L10.5577 20.4792L20.4918 10.5451L23.6468 13.7093L15.442 21.9141C15.0832 22.2728 15.0832 22.8615 15.442 23.2203C15.8007 23.579 16.3894 23.579 16.7481 23.2203L24.9529 15.0154L26.7374 16.7999C27.0961 17.1586 27.6848 17.1586 28.0435 16.7999C28.4022 16.4412 28.4022 15.8525 28.0435 15.4937L21.1357 8.58589L15.212 2.66224C11.7811 -0.833083 6.17016 -0.897471 2.66564 2.53346C-0.83888 5.9644 -0.894069 11.5753 2.53687 15.0798C2.58286 15.1258 2.61965 15.1626 2.66564 15.2086C3.02437 15.5765 3.60386 15.5857 3.97179 15.227C4.33972 14.8683 4.34891 14.2888 3.99018 13.9209C3.98099 13.9117 3.97179 13.9025 3.97179 13.9025C1.23072 11.1614 1.23072 6.71865 3.97179 3.97758C6.71286 1.23651 11.1556 1.23651 13.8967 3.97758L19.1672 9.24816L9.25156 19.1638L6.40012 16.3124C6.04139 15.9537 5.4527 15.9537 5.09397 16.3124C4.73524 16.6711 4.73524 17.2598 5.09397 17.6185L8.59849 21.1231L48.3532 60.8777C48.4084 60.9237 48.4636 60.9605 48.5187 60.9881L48.6383 61.1537C48.9511 61.5584 49.5306 61.6412 49.9353 61.3285C50.3308 61.0249 50.4136 60.4638 50.1284 60.0591C46.1364 54.6506 42.0524 48.1106 41.85 46.2986Z" fill="#333231"/>
<path d="M68.7832 67.5649L61.4799 49.0305C61.4799 49.0213 61.4707 49.0213 61.4707 49.0121C61.4247 48.9201 61.3695 48.8282 61.2959 48.7546C61.2867 48.7454 61.2867 48.727 61.2775 48.7178L33.6369 21.0772C33.2781 20.7184 32.6894 20.7184 32.3307 21.0772C31.972 21.4359 31.972 22.0246 32.3307 22.3833L49.0163 39.0689C41.6577 33.7247 40.8483 34.4698 40.2228 35.0676C39.3673 35.8771 39.5421 37.2476 42.9271 41.8743C43.2306 42.2882 43.8101 42.3802 44.224 42.0767C44.6379 41.7731 44.7299 41.1936 44.4264 40.7797C43.433 39.5104 42.5683 38.149 41.8417 36.7049C43.2674 37.2752 47.4986 39.7679 59.861 49.932L63.7702 59.866C62.0961 60.7123 60.7348 62.0644 59.8978 63.7385L52.9715 61.0066C52.4932 60.8134 51.9597 61.0434 51.7665 61.5125C51.5734 61.9908 51.8033 62.5243 52.2724 62.7175C52.2816 62.7175 52.2816 62.7267 52.2908 62.7267L67.5875 68.7699C68.0658 68.9539 68.5993 68.7239 68.7924 68.2456C68.8752 68.0248 68.8752 67.7857 68.7832 67.5649ZM61.627 64.4283C62.2617 63.2234 63.2459 62.2392 64.4509 61.6045L66.2813 66.2588L61.627 64.4283Z" fill="#333231"/>
</svg>
