<svg width="101" height="67" viewBox="0 0 101 67" fill="none" xmlns="http://www.w3.org/2000/svg">
<path d="M99 7H1V66H99V7Z" fill="#464646"/>
<path d="M91 12H9V61H91V12Z" fill="white"/>
<path d="M23 61L39 27L55 61H23Z" fill="#464646"/>
<path d="M59.4626 17L47 43.6988L55.0748 61H80L59.4626 17Z" fill="#464646"/>
<path d="M25 27C27.2092 27 29 25.2091 29 23C29 20.7909 27.2092 19 25 19C22.7909 19 21 20.7909 21 23C21 25.2091 22.7909 27 25 27Z" fill="#464646"/>
<path d="M99.7178 12.7411C100.423 12.7411 101 12.1657 101 11.4624V6.64023C101 6.61283 100.982 6.58544 100.982 6.5489C100.963 6.37538 100.918 6.21098 100.844 6.05572C100.835 6.02832 100.835 6.00093 100.817 5.97353C100.789 5.93699 100.753 5.90046 100.716 5.86393C100.661 5.79087 100.606 5.72694 100.533 5.67214C100.405 5.57168 100.267 5.48948 100.112 5.43468C100.029 5.40728 99.9468 5.38902 99.8644 5.38902C99.8186 5.37988 99.7636 5.36162 99.7087 5.36162H92.2903C92.4551 4.92324 92.5467 4.46659 92.5467 3.99167C92.5834 1.82716 90.8432 0.0370983 88.6727 0.000566405C86.5021 -0.0359655 84.707 1.6993 84.6704 3.86381C84.6704 3.90948 84.6704 3.94601 84.6704 3.99167C84.6704 4.45745 84.762 4.92324 84.9268 5.36162H16.064C16.2289 4.92324 16.3205 4.46659 16.3205 3.99167C16.3571 1.82716 14.617 0.0370983 12.4464 0.000566405C10.2758 -0.0359655 8.48078 1.6993 8.44414 3.86381C8.44414 3.90948 8.44414 3.94601 8.44414 3.99167C8.44414 4.45745 8.53573 4.92324 8.70058 5.36162H1.28221C1.23642 5.37075 1.18147 5.37988 1.13567 5.38902C0.796809 5.41642 0.485399 5.59907 0.283911 5.87306C0.247277 5.9096 0.210657 5.94613 0.183181 5.98266C0.164864 6.01006 0.164865 6.03746 0.155707 6.06486C0.0824388 6.22012 0.0366519 6.38451 0.0183349 6.55804C0.0183349 6.58543 0 6.61283 0 6.64937V65.7214C0 65.7488 0.0183349 65.7762 0.0183349 65.8127C0.0366519 65.9862 0.0824388 66.1506 0.155707 66.3059C0.164865 66.3333 0.164864 66.3607 0.183181 66.3881C0.228974 66.4612 0.283918 66.5342 0.348028 66.5982C0.357186 66.6073 0.366353 66.6255 0.38467 66.6347C0.485413 66.7351 0.613618 66.8173 0.741837 66.8721C0.769312 66.8904 0.805961 66.8995 0.842595 66.9087C0.979972 66.9635 1.13568 66.9909 1.28221 67H99.6995C99.846 67 100.002 66.9635 100.139 66.9087C100.176 66.8995 100.203 66.8813 100.24 66.8721C100.368 66.8173 100.496 66.7351 100.597 66.6347C100.606 66.6255 100.615 66.6073 100.634 66.5982C100.698 66.5342 100.753 66.4612 100.799 66.3881C100.817 66.3607 100.817 66.3333 100.826 66.3059C100.899 66.1506 100.945 65.9862 100.963 65.8127C100.963 65.7853 100.982 65.7579 100.982 65.7214V17.3075C100.982 16.6043 100.405 16.0289 99.6995 16.0289C98.9943 16.0289 98.4173 16.6043 98.4173 17.3075V63.4381L92.9405 60.1503V56.9903C92.9405 56.287 92.3635 55.7117 91.6583 55.7117C90.9531 55.7117 90.3762 56.287 90.3762 56.9903V59.5932H80.6315L60.5744 16.7596C60.2721 16.1203 59.512 15.8371 58.8709 16.1385C58.5961 16.2664 58.3763 16.4856 58.2481 16.7596L48.4119 37.7654C48.1096 38.4047 48.3936 39.1719 49.0346 39.4641C49.6757 39.7655 50.4451 39.4824 50.7381 38.8431L59.4113 20.3123L77.7924 59.5749H55.8944L40.1967 26.0478C39.8945 25.4085 39.1343 25.1254 38.4932 25.4267C38.2184 25.5546 37.9986 25.7738 37.8704 26.0478L24.1144 55.4285C23.8121 56.0678 24.096 56.835 24.7371 57.1273C25.3782 57.4195 26.1476 57.1455 26.4406 56.5062L39.0336 29.6005L53.0644 59.5658H48.5859C47.8807 59.5658 47.3037 60.1411 47.3037 60.8444C47.3037 61.5476 47.8807 62.123 48.5859 62.123H91.3195L95.0928 64.388H5.92555L9.69885 62.123H42.6786C43.3838 62.123 43.9608 61.5476 43.9608 60.8444C43.9608 60.1411 43.3838 59.5658 42.6786 59.5658H10.6239V12.7137H15.0474C15.7527 12.7137 16.3296 12.1383 16.3296 11.435C16.3296 10.7318 15.7527 10.1564 15.0474 10.1564H9.69885L5.92555 7.89145H95.1019L91.3286 10.1564H26.2117C25.5065 10.1564 24.9295 10.7318 24.9295 11.435C24.9295 12.1383 25.5065 12.7137 26.2117 12.7137H90.3945V51.6658C90.3945 52.369 90.9714 52.9444 91.6767 52.9444C92.3819 52.9444 92.9588 52.369 92.9588 51.6658V12.1839L98.4356 8.89608V11.4533C98.4265 12.1657 99.0034 12.7411 99.7178 12.7411C99.7087 12.7411 99.7087 12.7411 99.7178 12.7411ZM87.2531 3.99167C87.2531 3.23364 87.8667 2.62173 88.6269 2.62173C89.387 2.62173 90.0007 3.23364 90.0007 3.99167C90.0007 4.74971 89.387 5.36162 88.6269 5.36162C87.8576 5.35248 87.2531 4.74058 87.2531 3.99167ZM11.0268 3.99167C11.0268 3.23364 11.6405 2.63086 12.4006 2.63086C13.1608 2.63086 13.7652 3.24277 13.7652 4.00081C13.7652 4.74971 13.1516 5.36162 12.3915 5.36162C11.6405 5.36162 11.0268 4.74971 11.0268 3.99167ZM8.0595 60.1503L2.58271 63.4381V8.89608L8.0595 12.1839V60.1503Z" fill="#333231"/>
<path d="M21.4091 13C22.2841 13 23 12.325 23 11.5C23 10.675 22.2841 10 21.4091 10H20.5909C19.7159 10 19 10.675 19 11.5C19 12.325 19.7159 13 20.5909 13H21.4091Z" fill="#321F10"/>
<path d="M24.4952 28C27.532 28 30 25.7651 30 23.0044C30 20.2436 27.5416 18 24.5048 18C21.468 18 19 20.2349 19 22.9956C19.0096 25.7564 21.4584 27.9912 24.4952 28ZM24.4952 20.454C26.0377 20.454 27.291 21.5846 27.3006 22.9956C27.3006 24.3979 26.057 25.5372 24.5048 25.546C22.9527 25.5548 21.709 24.4154 21.6994 23.0044C21.6994 23.0044 21.6994 23.0044 21.6994 22.9956C21.709 21.5933 22.9527 20.4628 24.4952 20.454Z" fill="#333231"/>
</svg>
